<mxfile host="www.draw.io" modified="2019-12-19T05:22:13.973Z" agent="Mozilla/5.0 (Windows NT 10.0; WOW64) AppleWebKit/537.36 (KHTML, like Gecko) Chrome/74.0.3729.169 Safari/537.36" etag="IFP-D-yRemRsghvSIXPG" version="12.4.3" type="github" pages="1">
  <diagram id="ex9LxSfplm9mxNxkGoQS" name="Page-1">
    <mxGraphModel dx="1310" dy="5369" grid="0" gridSize="10" guides="1" tooltips="1" connect="1" arrows="1" fold="1" page="1" pageScale="1" pageWidth="3300" pageHeight="4681" math="0" shadow="0">
      <root>
        <mxCell id="0"/>
        <mxCell id="1" parent="0"/>
        <mxCell id="tbxaxa6crfy1sIHWOHth-10" style="edgeStyle=none;rounded=0;orthogonalLoop=1;jettySize=auto;html=1;exitX=0;exitY=0;exitDx=340;exitDy=281.935;exitPerimeter=0;entryX=0;entryY=0;entryDx=0;entryDy=97;entryPerimeter=0;dashed=1;startArrow=classic;startFill=1;" edge="1" parent="1" source="CW-1tltKVULje9kkSE9_-15" target="tbxaxa6crfy1sIHWOHth-8">
          <mxGeometry relative="1" as="geometry"/>
        </mxCell>
        <mxCell id="CW-1tltKVULje9kkSE9_-15" value="" style="shape=folder;fontStyle=1;spacingTop=10;tabWidth=40;tabHeight=14;tabPosition=left;html=1;fontSize=16;" parent="1" vertex="1">
          <mxGeometry x="590" y="506.13" width="340" height="549.87" as="geometry"/>
        </mxCell>
        <mxCell id="CW-1tltKVULje9kkSE9_-30" value="" style="group;fontSize=16;" parent="1" vertex="1" connectable="0">
          <mxGeometry x="860" y="-70" width="560" height="1200" as="geometry"/>
        </mxCell>
        <mxCell id="tbxaxa6crfy1sIHWOHth-8" value="" style="shape=folder;fontStyle=1;spacingTop=10;tabWidth=40;tabHeight=14;tabPosition=left;html=1;" vertex="1" parent="CW-1tltKVULje9kkSE9_-30">
          <mxGeometry x="140" y="810" width="170" height="180" as="geometry"/>
        </mxCell>
        <mxCell id="CW-1tltKVULje9kkSE9_-31" value="" style="shape=folder;fontStyle=1;spacingTop=10;tabWidth=40;tabHeight=14;tabPosition=left;html=1;fontSize=16;" parent="CW-1tltKVULje9kkSE9_-30" vertex="1">
          <mxGeometry x="150" y="520" width="160" height="188" as="geometry"/>
        </mxCell>
        <mxCell id="CW-1tltKVULje9kkSE9_-32" value="第三方服务" style="rounded=0;whiteSpace=wrap;html=1;fontSize=16;" parent="CW-1tltKVULje9kkSE9_-30" vertex="1">
          <mxGeometry x="150" y="484" width="100" height="50" as="geometry"/>
        </mxCell>
        <mxCell id="CW-1tltKVULje9kkSE9_-33" value="第三方&#xa;数据处理" style="shape=component;align=left;spacingLeft=36;fontSize=16;" parent="CW-1tltKVULje9kkSE9_-30" vertex="1">
          <mxGeometry x="160" y="600" width="120" height="60" as="geometry"/>
        </mxCell>
        <mxCell id="CW-1tltKVULje9kkSE9_-62" value="同步生词本&#xa;功能" style="shape=component;align=left;spacingLeft=36;fontSize=16;" parent="CW-1tltKVULje9kkSE9_-30" vertex="1">
          <mxGeometry x="160" y="846.4320107238607" width="120" height="47.1313672922252" as="geometry"/>
        </mxCell>
        <mxCell id="tbxaxa6crfy1sIHWOHth-1" value="获取网络&#xa;背景功能" style="shape=component;align=left;spacingLeft=36;fontSize=16;" vertex="1" parent="CW-1tltKVULje9kkSE9_-30">
          <mxGeometry x="160" y="920.0020107238606" width="120" height="47.1313672922252" as="geometry"/>
        </mxCell>
        <mxCell id="tbxaxa6crfy1sIHWOHth-9" value="服务端处理" style="rounded=0;whiteSpace=wrap;html=1;fontSize=16;" vertex="1" parent="CW-1tltKVULje9kkSE9_-30">
          <mxGeometry x="140" y="777" width="120" height="47.13136729222519" as="geometry"/>
        </mxCell>
        <mxCell id="tbxaxa6crfy1sIHWOHth-14" style="edgeStyle=none;rounded=0;orthogonalLoop=1;jettySize=auto;html=1;entryX=0.423;entryY=0.019;entryDx=0;entryDy=0;entryPerimeter=0;dashed=1;startArrow=none;startFill=0;" edge="1" parent="CW-1tltKVULje9kkSE9_-30" source="tbxaxa6crfy1sIHWOHth-11" target="tbxaxa6crfy1sIHWOHth-12">
          <mxGeometry relative="1" as="geometry"/>
        </mxCell>
        <mxCell id="tbxaxa6crfy1sIHWOHth-11" value="DB&#xa;Manager" style="shape=component;align=center;spacingLeft=36;fontSize=16;" vertex="1" parent="CW-1tltKVULje9kkSE9_-30">
          <mxGeometry x="370" y="824.1329490616622" width="120" height="47.1313672922252" as="geometry"/>
        </mxCell>
        <mxCell id="tbxaxa6crfy1sIHWOHth-15" style="edgeStyle=none;rounded=0;orthogonalLoop=1;jettySize=auto;html=1;entryX=0.434;entryY=0.016;entryDx=0;entryDy=0;entryPerimeter=0;dashed=1;startArrow=none;startFill=0;" edge="1" parent="CW-1tltKVULje9kkSE9_-30" source="tbxaxa6crfy1sIHWOHth-12" target="CW-1tltKVULje9kkSE9_-3">
          <mxGeometry relative="1" as="geometry"/>
        </mxCell>
        <mxCell id="tbxaxa6crfy1sIHWOHth-12" value="PyMySQL" style="shape=component;align=center;spacingLeft=36;fontSize=16;" vertex="1" parent="CW-1tltKVULje9kkSE9_-30">
          <mxGeometry x="380" y="942.8729490616623" width="120" height="47.1313672922252" as="geometry"/>
        </mxCell>
        <mxCell id="CW-1tltKVULje9kkSE9_-3" value="MySQL" style="shape=cylinder;whiteSpace=wrap;html=1;boundedLbl=1;backgroundOutline=1;fontSize=16;" parent="CW-1tltKVULje9kkSE9_-30" vertex="1">
          <mxGeometry x="400" y="1020" width="100" height="80" as="geometry"/>
        </mxCell>
        <mxCell id="CW-1tltKVULje9kkSE9_-11" value="" style="group;fontSize=16;" parent="1" vertex="1" connectable="0">
          <mxGeometry x="370" y="470" width="200" height="586" as="geometry"/>
        </mxCell>
        <mxCell id="CW-1tltKVULje9kkSE9_-9" value="" style="shape=folder;fontStyle=1;spacingTop=10;tabWidth=40;tabHeight=14;tabPosition=left;html=1;fontSize=16;" parent="CW-1tltKVULje9kkSE9_-11" vertex="1">
          <mxGeometry x="-10" y="36.134048257372655" width="200" height="549.8659517426273" as="geometry"/>
        </mxCell>
        <mxCell id="CW-1tltKVULje9kkSE9_-10" value="界面" style="rounded=0;whiteSpace=wrap;html=1;fontSize=16;" parent="CW-1tltKVULje9kkSE9_-11" vertex="1">
          <mxGeometry x="-10" y="3" width="120" height="47.13136729222519" as="geometry"/>
        </mxCell>
        <mxCell id="CW-1tltKVULje9kkSE9_-2" value="网络显示&#xa;界面" style="shape=component;align=left;spacingLeft=36;fontSize=16;" parent="CW-1tltKVULje9kkSE9_-11" vertex="1">
          <mxGeometry x="50" y="138.25201072386056" width="120" height="47.13136729222519" as="geometry"/>
        </mxCell>
        <mxCell id="tbxaxa6crfy1sIHWOHth-2" style="rounded=0;orthogonalLoop=1;jettySize=auto;html=1;entryX=0.5;entryY=1;entryDx=0;entryDy=0;dashed=1;" edge="1" parent="CW-1tltKVULje9kkSE9_-11" source="CW-1tltKVULje9kkSE9_-4" target="CW-1tltKVULje9kkSE9_-2">
          <mxGeometry relative="1" as="geometry"/>
        </mxCell>
        <mxCell id="CW-1tltKVULje9kkSE9_-4" value="网络创建&#xa;界面" style="shape=component;align=left;spacingLeft=36;fontSize=16;" parent="CW-1tltKVULje9kkSE9_-11" vertex="1">
          <mxGeometry x="50" y="232.51474530831095" width="120" height="47.13136729222519" as="geometry"/>
        </mxCell>
        <mxCell id="CW-1tltKVULje9kkSE9_-5" value="单词对比&#xa;界面" style="shape=component;align=left;spacingLeft=36;fontSize=16;" parent="CW-1tltKVULje9kkSE9_-11" vertex="1">
          <mxGeometry x="50" y="326.77747989276133" width="120" height="47.13136729222519" as="geometry"/>
        </mxCell>
        <mxCell id="CW-1tltKVULje9kkSE9_-6" value="生词本&#xa;界面" style="shape=component;align=left;spacingLeft=36;fontSize=16;" parent="CW-1tltKVULje9kkSE9_-11" vertex="1">
          <mxGeometry x="50" y="413.18498659517417" width="120" height="47.13136729222519" as="geometry"/>
        </mxCell>
        <mxCell id="CW-1tltKVULje9kkSE9_-7" value="详细查询&#xa;界面" style="shape=component;align=left;spacingLeft=36;fontSize=16;" parent="CW-1tltKVULje9kkSE9_-11" vertex="1">
          <mxGeometry x="50" y="515.3029490616622" width="120" height="47.13136729222519" as="geometry"/>
        </mxCell>
        <mxCell id="CW-1tltKVULje9kkSE9_-34" style="rounded=0;orthogonalLoop=1;jettySize=auto;html=1;exitX=1;exitY=0.5;exitDx=0;exitDy=0;entryX=0;entryY=0.7;entryDx=0;entryDy=0;fontSize=16;dashed=1;" parent="1" source="CW-1tltKVULje9kkSE9_-18" target="CW-1tltKVULje9kkSE9_-33" edge="1">
          <mxGeometry relative="1" as="geometry"/>
        </mxCell>
        <mxCell id="CW-1tltKVULje9kkSE9_-38" style="edgeStyle=none;rounded=0;orthogonalLoop=1;jettySize=auto;html=1;exitX=1;exitY=0.5;exitDx=0;exitDy=0;dashed=1;fontSize=16;" parent="1" source="CW-1tltKVULje9kkSE9_-2" target="CW-1tltKVULje9kkSE9_-18" edge="1">
          <mxGeometry relative="1" as="geometry"/>
        </mxCell>
        <mxCell id="CW-1tltKVULje9kkSE9_-39" style="edgeStyle=none;rounded=0;orthogonalLoop=1;jettySize=auto;html=1;exitX=1;exitY=0.5;exitDx=0;exitDy=0;entryX=-0.039;entryY=0.53;entryDx=0;entryDy=0;entryPerimeter=0;dashed=1;fontSize=16;" parent="1" source="CW-1tltKVULje9kkSE9_-4" target="CW-1tltKVULje9kkSE9_-19" edge="1">
          <mxGeometry relative="1" as="geometry"/>
        </mxCell>
        <mxCell id="CW-1tltKVULje9kkSE9_-43" style="edgeStyle=none;rounded=0;orthogonalLoop=1;jettySize=auto;html=1;exitX=1;exitY=0.5;exitDx=0;exitDy=0;dashed=1;fontSize=16;" parent="1" source="CW-1tltKVULje9kkSE9_-6" target="CW-1tltKVULje9kkSE9_-21" edge="1">
          <mxGeometry relative="1" as="geometry"/>
        </mxCell>
        <mxCell id="CW-1tltKVULje9kkSE9_-45" style="edgeStyle=none;rounded=0;orthogonalLoop=1;jettySize=auto;html=1;entryX=0.083;entryY=0.567;entryDx=0;entryDy=0;entryPerimeter=0;dashed=1;fontSize=16;" parent="1" source="CW-1tltKVULje9kkSE9_-7" target="CW-1tltKVULje9kkSE9_-22" edge="1">
          <mxGeometry relative="1" as="geometry"/>
        </mxCell>
        <mxCell id="CW-1tltKVULje9kkSE9_-70" style="edgeStyle=none;rounded=0;orthogonalLoop=1;jettySize=auto;html=1;exitX=1;exitY=0.5;exitDx=0;exitDy=0;entryX=-0.01;entryY=0.541;entryDx=0;entryDy=0;entryPerimeter=0;dashed=1;fontSize=16;" parent="1" source="CW-1tltKVULje9kkSE9_-2" target="CW-1tltKVULje9kkSE9_-69" edge="1">
          <mxGeometry relative="1" as="geometry"/>
        </mxCell>
        <mxCell id="tbxaxa6crfy1sIHWOHth-6" style="edgeStyle=none;rounded=0;orthogonalLoop=1;jettySize=auto;html=1;exitX=1;exitY=0.5;exitDx=0;exitDy=0;dashed=1;entryX=0.006;entryY=0.411;entryDx=0;entryDy=0;entryPerimeter=0;" edge="1" parent="1" source="CW-1tltKVULje9kkSE9_-69" target="tbxaxa6crfy1sIHWOHth-4">
          <mxGeometry relative="1" as="geometry">
            <mxPoint x="830" y="460" as="targetPoint"/>
          </mxGeometry>
        </mxCell>
        <mxCell id="tbxaxa6crfy1sIHWOHth-7" value="" style="group" vertex="1" connectable="0" parent="1">
          <mxGeometry x="760" y="540" width="120" height="47.13337801608583" as="geometry"/>
        </mxCell>
        <mxCell id="tbxaxa6crfy1sIHWOHth-4" value="图片数据" style="shape=component;align=left;spacingLeft=36;fontSize=16;" vertex="1" parent="tbxaxa6crfy1sIHWOHth-7">
          <mxGeometry y="0.0020107238606215105" width="120" height="47.1313672922252" as="geometry"/>
        </mxCell>
        <mxCell id="tbxaxa6crfy1sIHWOHth-5" value="&amp;lt;doucment&amp;gt;" style="text;html=1;strokeColor=none;fillColor=none;align=center;verticalAlign=middle;whiteSpace=wrap;rounded=0;" vertex="1" parent="tbxaxa6crfy1sIHWOHth-7">
          <mxGeometry x="50" width="40" height="20" as="geometry"/>
        </mxCell>
        <mxCell id="CW-1tltKVULje9kkSE9_-16" value="" style="group;fontSize=16;" parent="1" vertex="1" connectable="0">
          <mxGeometry x="640" y="529.6997319034854" width="120" height="502.73458445040217" as="geometry"/>
        </mxCell>
        <mxCell id="CW-1tltKVULje9kkSE9_-18" value="翻译功能" style="shape=component;align=left;spacingLeft=36;fontSize=16;" parent="CW-1tltKVULje9kkSE9_-16" vertex="1">
          <mxGeometry y="78.55227882037534" width="120" height="47.1313672922252" as="geometry"/>
        </mxCell>
        <mxCell id="CW-1tltKVULje9kkSE9_-19" value="网络创建&#xa;功能" style="shape=component;align=left;spacingLeft=36;fontSize=16;" parent="CW-1tltKVULje9kkSE9_-16" vertex="1">
          <mxGeometry y="172.81501340482575" width="120" height="47.1313672922252" as="geometry"/>
        </mxCell>
        <mxCell id="CW-1tltKVULje9kkSE9_-20" value="单词对比&#xa;功能" style="shape=component;align=left;spacingLeft=36;fontSize=16;" parent="CW-1tltKVULje9kkSE9_-16" vertex="1">
          <mxGeometry y="267.0777479892762" width="120" height="47.1313672922252" as="geometry"/>
        </mxCell>
        <mxCell id="CW-1tltKVULje9kkSE9_-21" value="添加生词&#xa;功能" style="shape=component;align=left;spacingLeft=36;fontSize=16;" parent="CW-1tltKVULje9kkSE9_-16" vertex="1">
          <mxGeometry y="353.485254691689" width="120" height="47.1313672922252" as="geometry"/>
        </mxCell>
        <mxCell id="CW-1tltKVULje9kkSE9_-22" value="详细查询&#xa;功能" style="shape=component;align=left;spacingLeft=36;fontSize=16;" parent="CW-1tltKVULje9kkSE9_-16" vertex="1">
          <mxGeometry y="455.603217158177" width="120" height="47.1313672922252" as="geometry"/>
        </mxCell>
        <mxCell id="CW-1tltKVULje9kkSE9_-23" value="客户端处理" style="rounded=0;whiteSpace=wrap;html=1;fontSize=16;" parent="1" vertex="1">
          <mxGeometry x="590" y="473" width="120" height="47.13136729222519" as="geometry"/>
        </mxCell>
        <mxCell id="CW-1tltKVULje9kkSE9_-40" style="edgeStyle=none;rounded=0;orthogonalLoop=1;jettySize=auto;html=1;exitX=1;exitY=0.5;exitDx=0;exitDy=0;entryX=0.25;entryY=0.4;entryDx=0;entryDy=0;entryPerimeter=0;dashed=1;fontSize=16;" parent="1" edge="1">
          <mxGeometry relative="1" as="geometry">
            <mxPoint x="520" y="820.343163538874" as="sourcePoint"/>
            <mxPoint x="640" y="820.343163538874" as="targetPoint"/>
          </mxGeometry>
        </mxCell>
        <mxCell id="CW-1tltKVULje9kkSE9_-69" value="网络背景&#xa;更改功能" style="shape=component;align=left;spacingLeft=36;fontSize=16;" parent="1" vertex="1">
          <mxGeometry x="600" y="540.0020107238606" width="120" height="47.13136729222519" as="geometry"/>
        </mxCell>
        <mxCell id="tbxaxa6crfy1sIHWOHth-13" style="edgeStyle=none;rounded=0;orthogonalLoop=1;jettySize=auto;html=1;dashed=1;startArrow=none;startFill=0;" edge="1" parent="1" source="tbxaxa6crfy1sIHWOHth-8">
          <mxGeometry relative="1" as="geometry">
            <mxPoint x="1220" y="780" as="targetPoint"/>
          </mxGeometry>
        </mxCell>
      </root>
    </mxGraphModel>
  </diagram>
</mxfile>
